<svg width="29" height="29" viewBox="0 0 29 29" fill="none" xmlns="http://www.w3.org/2000/svg">
<path d="M28.4781 14.8786C28.4781 22.2473 22.2355 28.2571 14.4891 28.2571C6.74262 28.2571 0.5 22.2473 0.5 14.8786C0.5 7.50986 6.74262 1.5 14.4891 1.5C22.2355 1.5 28.4781 7.50986 28.4781 14.8786Z" stroke="#333333"/>
<line x1="1.95215" y1="20.9238" x2="27.0863" y2="20.9238" stroke="#333333"/>
<line x1="0.236328" y1="14.9487" x2="28.9188" y2="14.9487" stroke="#333333"/>
<line x1="1.53809" y1="8.59375" x2="27.441" y2="8.59375" stroke="#333333"/>
<path d="M14.5775 1.35303C13.0498 1.64273 9.9706 4.83489 9.87598 15.2859" stroke="#333333"/>
<path d="M14.5775 1.35303C13.0498 1.64273 9.9706 4.83489 9.87598 15.2859" stroke="#333333"/>
<path d="M14.6071 28.377C13.0697 28.1048 9.97119 25.1055 9.87598 15.286" stroke="#333333"/>
<path d="M14.6074 28.377C15.9142 28.1048 18.548 25.1055 18.6289 15.286" stroke="#333333"/>
<path d="M14.6074 1.32617C15.9142 1.61644 18.548 4.81482 18.6289 15.2862" stroke="#333333"/>
<path d="M14.6375 28.4315C12.41 27.9698 7.90669 25.745 5.7371 21.2614C4.55428 18.817 4.49513 15.2319 4.55432 15.2863" stroke="#333333"/>
<path d="M14.6665 1.32608C12.4358 1.81639 7.92612 4.179 5.75345 8.9403C4.56895 11.5361 4.50971 15.3432 4.56899 15.2855" stroke="#333333"/>
<path d="M14.6664 28.4314C16.8058 27.9697 21.1309 25.745 23.2146 21.2616C24.3506 18.8173 24.4074 15.2324 24.3506 15.2867" stroke="#333333"/>
<path d="M14.6664 1.32608C16.8058 1.81639 21.1309 4.179 23.2146 8.9403C24.3506 11.5361 24.4074 15.3432 24.3506 15.2855" stroke="#333333"/>
</svg>
